<svg class="w-[72.73px] h-auto" width="73" height="96" viewBox="0 0 73 96" fill="none" xmlns="http://www.w3.org/2000/svg" xmlns:xlink="http://www.w3.org/1999/xlink"><g clip-path="url(#clip0_278_1652)"><path d="M47.5577 95.0191C46.5166 95.0191 45.5426 94.5825 44.8457 93.831C42.4904 94.4649 40.0681 94.7882 37.6457 94.7882C32.7883 94.7882 27.9981 93.5035 23.7915 91.0769L7.66599 81.7694C5.03369 80.2497 3.40058 77.42 3.40058 74.3805V56.3239C3.40058 53.2843 5.03369 50.4547 7.66599 48.9349L23.5186 39.7828L16.1381 37.0749C14.8534 36.6047 13.7912 35.6181 13.2245 34.3712L1.30565 8.128C0.579355 6.52427 0.709501 4.69383 1.65411 3.22025C2.6155 1.72987 4.22763 0.839844 5.9741 0.839844C6.57865 0.839844 7.1832 0.948998 7.76675 1.16311L27.1878 8.29173C28.4725 8.76193 29.5347 9.74852 30.1014 10.9954L41.55 36.1849C42.5618 36.3276 43.5694 36.5291 44.556 36.781L44.5308 9.73593C44.5308 8.28753 45.1017 6.95669 46.1471 5.9785C47.1001 5.08847 48.3974 4.57628 49.6988 4.57628C51.0003 4.57628 52.3185 5.10526 53.2925 6.06246L68.0368 20.5758C69.015 21.5372 69.5733 22.8722 69.5733 24.2409L69.5985 50.5051C71.0553 52.0794 71.8866 54.1744 71.8866 56.3155V74.3721C71.8866 77.4116 70.2534 80.2413 67.6211 81.761L56.4748 88.1969C56.4832 88.3061 56.4916 88.4153 56.4916 88.5244C56.4916 90.5606 54.8375 92.2147 52.8013 92.2147C52.2388 92.2147 51.6972 92.0887 51.206 91.8536C50.9499 93.6379 49.4091 95.0149 47.5535 95.0149L47.5577 95.0191Z" fill="#EBE8E2"></path><path d="M5.97808 1.6793C6.48607 1.6793 6.98986 1.77166 7.48106 1.94799L26.9021 9.07661C27.9769 9.47124 28.8669 10.2983 29.3413 11.3395L40.9831 36.953C42.4818 37.1419 43.9596 37.4525 45.3996 37.885L45.3744 9.73153C45.3744 8.51824 45.853 7.40571 46.7221 6.59125C47.5239 5.84396 48.6071 5.41574 49.7028 5.41574C50.8237 5.41574 51.8943 5.85655 52.7088 6.65842L67.453 21.1718C68.2716 21.9778 68.7377 23.0946 68.7419 24.2407L68.767 50.845C70.207 52.2724 71.0551 54.2371 71.0551 56.3153V74.3719C71.0551 77.1134 69.5815 79.6659 67.2095 81.0345L55.5552 87.7643C55.6223 88.0078 55.6601 88.2639 55.6601 88.5242C55.6601 90.0944 54.3797 91.3748 52.8095 91.3748C52.0118 91.3748 51.2897 91.0432 50.7734 90.5142C50.6348 90.5939 50.4963 90.6737 50.3535 90.7493C50.3913 90.934 50.4123 91.1271 50.4123 91.3244C50.4123 92.8946 49.1319 94.175 47.5617 94.175C46.5583 94.175 45.6725 93.6503 45.1645 92.8652C42.7295 93.5747 40.2022 93.9441 37.6496 93.9441C32.9392 93.9441 28.296 92.7015 24.2153 90.3462L8.0898 81.0387C5.71779 79.6701 4.24421 77.1176 4.24421 74.3761V56.3195C4.24421 53.578 5.71779 51.0255 8.0898 49.6568L24.2153 40.3493C24.6561 40.0974 25.1011 39.8581 25.5545 39.6314L16.4317 36.2812C15.357 35.8866 14.4669 35.0596 13.9925 34.0184L2.06952 7.77935C1.46077 6.44011 1.56993 4.90355 2.3592 3.67347C3.16526 2.42659 4.5129 1.6793 5.97389 1.6793M5.97808 0C3.94194 0 2.06532 1.03277 0.948586 2.76664C-0.151354 4.47533 -0.306689 6.61224 0.541356 8.47206L12.4644 34.7069C13.1235 36.1553 14.3578 37.3014 15.8524 37.8514L21.5494 39.9421L7.25015 48.1959C4.36176 49.8626 2.56491 52.9735 2.56491 56.3111V74.3677C2.56491 77.7053 4.36176 80.8162 7.25015 82.4829L23.3756 91.7904C27.7082 94.2926 32.6453 95.615 37.6496 95.615C39.9881 95.615 42.3223 95.3254 44.6061 94.7502C45.4164 95.4513 46.4576 95.8501 47.5617 95.8501C49.4887 95.8501 51.1428 94.6369 51.7935 92.9366C52.121 93.0121 52.4611 93.0499 52.8095 93.0499C55.2571 93.0499 57.2597 91.0977 57.3352 88.6669L68.0491 82.4829C70.9375 80.8162 72.7344 77.7053 72.7344 74.3677V56.3111C72.7344 54.0734 71.9073 51.8777 70.4463 50.1816L70.4212 24.2365C70.4212 22.6453 69.7662 21.0878 68.6327 19.9711L53.8885 5.45772C52.7591 4.34518 51.273 3.73224 49.707 3.73224C48.1914 3.73224 46.6885 4.32839 45.5801 5.36116C44.3668 6.49888 43.6993 8.04804 43.6993 9.73153L43.7245 35.7145C43.1997 35.6011 42.6666 35.5004 42.1376 35.4164L30.8779 10.6384C30.2188 9.18996 28.9845 8.04384 27.4899 7.49387L8.06041 0.373644C7.3845 0.125947 6.68339 0 5.97808 0Z" fill="#EBE8E2"></path><path d="M37.3602 42.8395C36.9529 42.8395 36.5415 42.7639 36.1469 42.6212L16.7258 35.4925C15.861 35.1735 15.1431 34.5102 14.761 33.6705L2.83381 7.43148C2.33422 6.33574 2.42238 5.13084 3.06471 4.12746C3.71544 3.11988 4.80279 2.51953 5.9741 2.51953C6.38133 2.51953 6.79276 2.5951 7.18739 2.73784L26.6085 9.86646C27.4733 10.1855 28.1912 10.8489 28.5733 11.6885L40.4963 37.9233C40.9959 39.0191 40.9119 40.224 40.2654 41.2274C39.6188 42.2349 38.5273 42.8353 37.356 42.8353L37.3602 42.8395Z" fill="#EBE8E2"></path><path d="M5.97826 3.35899C6.27633 3.35899 6.587 3.41356 6.90187 3.52692L26.323 10.6555C26.9863 10.899 27.5195 11.3944 27.8133 12.0368L39.7364 38.2716C40.5634 40.0936 39.157 41.9954 37.3601 41.9954C37.0621 41.9954 36.7514 41.9409 36.4365 41.8275L17.0154 34.6989C16.3521 34.4554 15.8189 33.96 15.5251 33.3177L3.59785 7.08283C2.7708 5.26079 4.17721 3.35899 5.97406 3.35899M5.97826 1.67969C4.51727 1.67969 3.16543 2.42698 2.36357 3.67385C1.5701 4.90394 1.46514 6.4363 2.07389 7.77974L13.9969 34.0146C14.4713 35.0599 15.3613 35.8828 16.4361 36.2774L35.8572 43.4061C36.3484 43.5866 36.8522 43.6747 37.3601 43.6747C38.8211 43.6747 40.173 42.9275 40.9748 41.6806C41.7683 40.4505 41.8775 38.9181 41.2645 37.5747L29.3415 11.3399C28.8671 10.2945 27.9771 9.47163 26.9023 9.077L7.48123 1.94838C6.99004 1.76785 6.48625 1.67969 5.97826 1.67969Z" fill="black"></path><path d="M66.3658 51.1097L50.2404 41.8021C42.4484 37.3016 32.8471 37.3016 25.0551 41.8021L8.92965 51.1097C7.06983 52.1844 5.92371 54.1702 5.92371 56.3155V74.3721C5.92371 76.5216 7.06983 78.5074 8.92965 79.578L25.0551 88.8855C32.8471 93.386 42.4484 93.386 50.2404 88.8855L66.3658 79.578C68.2257 78.5032 69.3718 76.5174 69.3718 74.3721V56.3155C69.3718 54.166 68.2257 52.1802 66.3658 51.1097Z" fill="black"></path><path d="M37.6498 93.1051C33.0863 93.1051 28.59 91.9002 24.6352 89.6164L8.50975 80.3088C6.39804 79.0872 5.08398 76.8159 5.08398 74.3725V61.9121L6.46521 63.075C6.85145 63.3983 7.2083 63.7636 7.53996 64.175C6.90182 63.3353 6.18812 62.6174 5.43664 62.0801L5.08398 61.8282V56.3117C5.08398 53.8725 6.39804 51.597 8.50975 50.3754L24.6352 41.0678C28.5858 38.7882 33.0863 37.5791 37.6498 37.5791C42.2133 37.5791 46.7096 38.784 50.6643 41.0678L66.7898 50.3754C68.9015 51.597 70.2156 53.8683 70.2156 56.3117V74.3683C70.2156 76.8075 68.9015 79.083 66.7898 80.3046L50.6643 89.6122C46.7138 91.8918 42.2133 93.1009 37.6498 93.1009V93.1051ZM17.0322 80.313V78.4238C17.0322 77.6178 17.5864 77.03 18.3462 77.03C18.3756 77.03 18.405 77.03 18.4344 77.03L18.4134 77.0174C17.6241 76.543 17.028 75.5648 17.028 74.7336V71.841L16.9776 71.8116V73.7008C16.9776 74.5069 16.4234 75.0946 15.6636 75.0946C15.6342 75.0946 15.6048 75.0946 15.5754 75.0946L15.5964 75.1072C16.3857 75.5816 16.9818 76.5598 16.9818 77.3911V80.2837L17.0322 80.313ZM32.3894 74.6118C34.9629 74.6118 37.8849 76.1148 40.8614 78.9654L41.2183 78.7597C37.9311 75.6362 35.2694 74.297 32.4104 74.297C32.1249 74.297 31.8352 74.3096 31.5497 74.3389C28.3591 74.6454 26.2264 76.9754 25.3279 78.1803L25.6218 78.3567C26.4992 77.2357 28.59 75.0191 31.6295 74.658C31.8772 74.6286 32.1375 74.6118 32.3936 74.6118H32.3894Z" fill="#EBE8E2"></path><path d="M37.6498 38.4273C41.9992 38.4273 46.3486 39.5525 50.2446 41.8027L66.37 51.1102C68.2298 52.185 69.376 54.1708 69.376 56.3161V74.3727C69.376 76.5222 68.2298 78.508 66.37 79.5786L50.2446 88.8861C46.3486 91.1363 41.9992 92.2614 37.6498 92.2614C33.3004 92.2614 28.9553 91.1363 25.0551 88.8861L8.92963 79.5786C7.0698 78.5038 5.92368 76.518 5.92368 74.3727V63.7176C7.39727 64.9603 8.35027 66.8327 9.28228 69.5238C9.29907 69.5699 9.33266 69.6119 9.37464 69.6413L10.7307 70.4516C10.7685 70.4726 10.8062 70.481 10.844 70.481C10.97 70.481 11.0833 70.3676 11.0581 70.2291C10.4074 66.4548 8.2663 63.0668 5.91949 61.3917V56.3077C5.91949 54.1582 7.06561 52.1724 8.92543 51.1018L25.0509 41.7943C28.9469 39.5441 33.2962 38.419 37.6456 38.419M15.6636 74.2552C15.5167 74.2552 15.3445 74.2048 15.164 74.0914L12.0615 72.2358C12.0111 72.2064 11.965 72.1896 11.923 72.1896C11.8432 72.1896 11.7928 72.2442 11.7928 72.3408V73.5373C11.7928 73.6842 11.9146 73.8773 12.0615 73.9655L15.164 75.8211C15.7056 76.1444 16.1422 76.8455 16.1422 77.3829V80.4854C16.1422 80.6323 16.264 80.8254 16.4109 80.9136L17.6074 81.6273C17.6578 81.6567 17.704 81.6735 17.7459 81.6735C17.8257 81.6735 17.8761 81.6189 17.8761 81.5223V78.4198C17.8761 78.063 18.0692 77.8657 18.3505 77.8657C18.4974 77.8657 18.6696 77.916 18.8501 78.0294L21.9526 79.885C22.003 79.9144 22.0491 79.9312 22.0911 79.9312C22.1709 79.9312 22.2213 79.8766 22.2213 79.7801V78.5836C22.2213 78.4366 22.0995 78.2435 21.9526 78.1553L18.8501 76.2997C18.3085 75.9765 17.8719 75.2753 17.8719 74.738V71.6355C17.8719 71.4885 17.7501 71.2954 17.6032 71.2072L16.4067 70.4935C16.3563 70.4642 16.3101 70.4474 16.2682 70.4474C16.1884 70.4474 16.138 70.5019 16.138 70.5985V73.701C16.138 74.0579 15.9449 74.2552 15.6636 74.2552ZM25.7562 79.3686C25.8528 79.3686 25.9451 79.3225 26.0081 79.2385C26.5707 78.4366 28.6026 75.8631 31.7261 75.4895C31.9444 75.4643 32.1669 75.4517 32.3894 75.4517C34.921 75.4517 37.7758 77.0974 40.5634 79.8514C40.6222 79.9102 40.6978 79.9396 40.7733 79.9396C40.8237 79.9396 40.8741 79.927 40.9203 79.9018L42.2511 79.1335C42.4232 79.0328 42.4526 78.7977 42.3099 78.6591C39.1276 75.523 36.0419 73.4617 32.402 73.4617C32.0913 73.4617 31.7765 73.4785 31.4574 73.5079C27.4019 73.8983 24.9459 77.194 24.2952 78.1763C24.1986 78.3233 24.2448 78.5206 24.396 78.6088L25.5925 79.3309C25.6428 79.3602 25.6974 79.377 25.752 79.377M37.6498 36.748C32.9394 36.748 28.2961 37.9907 24.2154 40.3459L8.08998 49.6535C5.71797 51.0221 4.24438 53.5746 4.24438 56.3161V74.3727C4.24438 77.1142 5.71797 79.6667 8.08998 81.0353L24.2154 90.3429C28.2919 92.6981 32.9394 93.9407 37.6498 93.9407C42.3603 93.9407 47.0035 92.6981 51.0842 90.3429L67.2097 81.0353C69.5817 79.6667 71.0553 77.1142 71.0553 74.3727V56.3161C71.0553 53.5746 69.5817 51.0221 67.2097 49.6535L51.0842 40.3459C47.0077 37.9907 42.3603 36.748 37.6498 36.748Z" fill="black"></path><path d="M64.4388 56.5464C63.5362 56.5464 62.6797 56.1895 62.0206 55.543L47.2764 41.0296C46.6173 40.3831 46.2394 39.4805 46.2394 38.5569L46.2142 9.74011C46.2142 8.76192 46.5963 7.86769 47.2974 7.21277C47.9439 6.60822 48.8213 6.25977 49.703 6.25977C50.5846 6.25977 51.462 6.61662 52.1212 7.26315L66.8654 21.7765C67.5245 22.423 67.9024 23.3256 67.9024 24.2492L67.9276 53.0702C67.9276 54.0484 67.5455 54.9426 66.8444 55.5975C66.1979 56.2021 65.3204 56.5505 64.4388 56.5505V56.5464Z" fill="#EBE8E2"></path><path d="M49.703 7.09922C50.3412 7.09922 50.9961 7.33432 51.5293 7.8591L66.2735 22.3724C66.7773 22.8678 67.0586 23.5396 67.0586 24.2449L67.0838 53.0658C67.0838 54.6528 65.7865 55.7023 64.4347 55.7023C63.7965 55.7023 63.1416 55.4672 62.6084 54.9424L47.8642 40.4291C47.3604 39.9337 47.0791 39.262 47.0791 38.5567L47.0539 9.73572C47.0539 8.14878 48.3512 7.09922 49.703 7.09922ZM49.703 5.41992C48.6073 5.41992 47.5241 5.84814 46.7223 6.59543C45.8532 7.40989 45.3746 8.52662 45.3746 9.73572L45.3998 38.5567C45.3998 39.7028 45.87 40.8195 46.6887 41.6256L61.4329 56.1389C62.2474 56.9408 63.3137 57.3816 64.4389 57.3816C65.564 57.3816 66.6178 56.9534 67.4196 56.2061C68.2887 55.3916 68.7673 54.2749 68.7673 53.0658L68.7421 24.2449C68.7421 23.0987 68.2719 21.982 67.4532 21.1759L52.709 6.6626C51.8945 5.86074 50.8282 5.41992 49.703 5.41992Z" fill="black"></path><path d="M36.1637 86.274C35.1351 86.274 34.0184 86.0305 32.8513 85.5519C29.1022 84.0153 25.1013 80.3838 25.1013 74.8002C25.1013 70.9966 26.9066 68.8135 30.0552 68.8135C31.0796 68.8135 32.2257 69.0528 33.4684 69.523C37.9018 71.2023 41.2436 75.8287 41.2436 80.2831C41.2436 84.0363 39.3418 86.274 36.1637 86.274Z" fill="#EBE8E2"></path><path d="M30.0594 69.6529C30.9831 69.6529 32.0326 69.8754 33.1745 70.3079C37.4442 71.9242 40.4081 76.3239 40.4081 80.2829C40.4081 83.8052 38.6449 85.4341 36.1679 85.4341C35.2485 85.4341 34.2367 85.2116 33.1745 84.775C29.224 83.1545 25.9452 79.5692 25.9452 74.8C25.9452 71.307 27.5321 69.6529 30.0594 69.6529ZM30.0594 67.9736C26.4322 67.9736 24.2659 70.5262 24.2659 74.8C24.2659 79.8211 27.4355 84.2376 32.5406 86.3284C33.8085 86.8489 35.0302 87.1134 36.1721 87.1134C39.0353 87.1134 42.0916 85.3208 42.0916 80.2829C42.0916 75.245 38.5147 70.5346 33.7707 68.7377C32.4357 68.2339 31.1888 67.9736 30.0636 67.9736H30.0594Z" fill="black"></path><path d="M42.5912 90.0776C41.4828 90.0776 40.5802 89.175 40.5802 88.0666C40.5802 86.9583 41.4828 86.0557 42.5912 86.0557C43.6995 86.0557 44.6021 86.9583 44.6021 88.0666C44.6021 89.175 43.6995 90.0776 42.5912 90.0776Z" fill="#EBE8E2"></path><path d="M42.5912 86.8951C43.2377 86.8951 43.7625 87.4199 43.7625 88.0664C43.7625 88.713 43.2377 89.2377 42.5912 89.2377C41.9447 89.2377 41.4199 88.713 41.4199 88.0664C41.4199 87.4199 41.9447 86.8951 42.5912 86.8951ZM42.5912 85.2158C41.0211 85.2158 39.7406 86.4963 39.7406 88.0664C39.7406 89.6366 41.0211 90.917 42.5912 90.917C44.1614 90.917 45.4418 89.6366 45.4418 88.0664C45.4418 86.4963 44.1614 85.2158 42.5912 85.2158Z" fill="black"></path><path d="M47.5577 93.3393C46.4494 93.3393 45.5468 92.4367 45.5468 91.3283C45.5468 90.22 46.4494 89.3174 47.5577 89.3174C48.666 89.3174 49.5687 90.22 49.5687 91.3283C49.5687 92.4367 48.666 93.3393 47.5577 93.3393Z" fill="#EBE8E2"></path><path d="M47.5578 90.1568C48.2043 90.1568 48.7291 90.6816 48.7291 91.3281C48.7291 91.9747 48.2043 92.4995 47.5578 92.4995C46.9112 92.4995 46.3865 91.9747 46.3865 91.3281C46.3865 90.6816 46.9112 90.1568 47.5578 90.1568ZM47.5578 88.4775C45.9876 88.4775 44.7072 89.758 44.7072 91.3281C44.7072 92.8983 45.9876 94.1788 47.5578 94.1788C49.1279 94.1788 50.4084 92.8983 50.4084 91.3281C50.4084 89.758 49.1279 88.4775 47.5578 88.4775Z" fill="black"></path><path d="M52.8055 90.5395C51.6972 90.5395 50.7946 89.6369 50.7946 88.5285C50.7946 87.4202 51.6972 86.5176 52.8055 86.5176C53.9139 86.5176 54.8165 87.4202 54.8165 88.5285C54.8165 89.6369 53.9139 90.5395 52.8055 90.5395Z" fill="#EBE8E2"></path><path d="M52.8056 87.357C53.4521 87.357 53.9769 87.8818 53.9769 88.5283C53.9769 89.1749 53.4521 89.6997 52.8056 89.6997C52.159 89.6997 51.6343 89.1749 51.6343 88.5283C51.6343 87.8818 52.159 87.357 52.8056 87.357ZM52.8056 85.6777C51.2354 85.6777 49.955 86.9582 49.955 88.5283C49.955 90.0985 51.2354 91.379 52.8056 91.379C54.3757 91.379 55.6562 90.0985 55.6562 88.5283C55.6562 86.9582 54.3757 85.6777 52.8056 85.6777Z" fill="black"></path><path d="M54.6191 84.9057C53.5108 84.9057 52.6082 84.0031 52.6082 82.8947C52.6082 81.7864 53.5108 80.8838 54.6191 80.8838C55.7275 80.8838 56.6301 81.7864 56.6301 82.8947C56.6301 84.0031 55.7275 84.9057 54.6191 84.9057Z" fill="#EBE8E2"></path><path d="M54.6192 81.7271C55.2657 81.7271 55.7905 82.2519 55.7905 82.8985C55.7905 83.545 55.2657 84.0698 54.6192 84.0698C53.9726 84.0698 53.4479 83.545 53.4479 82.8985C53.4479 82.2519 53.9726 81.7271 54.6192 81.7271ZM54.6192 80.0479C53.049 80.0479 51.7686 81.3283 51.7686 82.8985C51.7686 84.4686 53.049 85.7491 54.6192 85.7491C56.1893 85.7491 57.4698 84.4686 57.4698 82.8985C57.4698 81.3283 56.1893 80.0479 54.6192 80.0479Z" fill="black"></path><path d="M55.1482 78.6245C54.0398 78.6245 53.1372 77.7218 53.1372 76.6135C53.1372 75.5052 54.0398 74.6025 55.1482 74.6025C56.2565 74.6025 57.1591 75.5052 57.1591 76.6135C57.1591 77.7218 56.2565 78.6245 55.1482 78.6245Z" fill="#EBE8E2"></path><path d="M55.1482 75.442C55.7947 75.442 56.3195 75.9668 56.3195 76.6133C56.3195 77.2598 55.7947 77.7846 55.1482 77.7846C54.5017 77.7846 53.9769 77.2598 53.9769 76.6133C53.9769 75.9668 54.5017 75.442 55.1482 75.442ZM55.1482 73.7627C53.5781 73.7627 52.2976 75.0432 52.2976 76.6133C52.2976 78.1835 53.5781 79.4639 55.1482 79.4639C56.7184 79.4639 57.9988 78.1835 57.9988 76.6133C57.9988 75.0432 56.7184 73.7627 55.1482 73.7627Z" fill="black"></path><path d="M42.0496 38.8711H34.8328V37.0701C34.8328 29.1858 39.3166 26.2176 42.5912 24.0513C45.0346 22.435 46.42 21.4274 46.42 19.5508C46.42 15.5541 44.1697 13.4382 39.9127 13.4382C35.6557 13.4382 33.0654 15.8563 32.952 19.9118L32.931 20.7263H25.7352V19.8867C25.7352 12.4222 31.4322 7.40527 39.9127 7.40527C48.3932 7.40527 53.7501 11.9562 53.7501 19.8867C53.7501 24.8154 50.6854 26.7928 47.7256 28.7072C44.8079 30.5922 42.0538 32.3722 42.0538 37.0659V38.8669L42.0496 38.8711ZM36.5121 37.1918H40.3703V37.0701C40.3703 31.4654 43.7919 29.2529 46.8104 27.3008C49.6316 25.4787 52.0708 23.9002 52.0708 19.8867C52.0708 10.957 45.4586 9.08457 39.9127 9.08457C32.6497 9.08457 27.8469 12.9638 27.4439 19.047H31.3273C31.7891 14.5255 35.0134 11.7547 39.9127 11.7547C45.1143 11.7547 48.0993 14.5927 48.0993 19.5466C48.0993 22.414 45.8742 23.8876 43.519 25.4451C40.236 27.6198 36.5121 30.08 36.5121 37.0659V37.1876V37.1918Z" fill="#EBE8E2" stroke="#EBE8E2" stroke-width="6" stroke-miterlimit="10"></path><path d="M42.0496 38.8711H34.8328V37.0701C34.8328 29.1858 39.3166 26.2176 42.5912 24.0513C45.0346 22.435 46.42 21.4274 46.42 19.5508C46.42 15.5541 44.1697 13.4382 39.9127 13.4382C35.6557 13.4382 33.0654 15.8563 32.952 19.9118L32.931 20.7263H25.7352V19.8867C25.7352 12.4222 31.4322 7.40527 39.9127 7.40527C48.3932 7.40527 53.7501 11.9562 53.7501 19.8867C53.7501 24.8154 50.6854 26.7928 47.7256 28.7072C44.8079 30.5922 42.0538 32.3722 42.0538 37.0659V38.8669L42.0496 38.8711ZM36.5121 37.1918H40.3703V37.0701C40.3703 31.4654 43.7919 29.2529 46.8104 27.3008C49.6316 25.4787 52.0708 23.9002 52.0708 19.8867C52.0708 10.957 45.4586 9.08457 39.9127 9.08457C32.6497 9.08457 27.8469 12.9638 27.4439 19.047H31.3273C31.7891 14.5255 35.0134 11.7547 39.9127 11.7547C45.1143 11.7547 48.0993 14.5927 48.0993 19.5466C48.0993 22.414 45.8742 23.8876 43.519 25.4451C40.236 27.6198 36.5121 30.08 36.5121 37.0659V37.1876V37.1918Z" fill="#EBE8E2"></path><path d="M26.5748 19.8908C26.5748 12.6572 32.0577 8.24902 39.9127 8.24902C47.7676 8.24902 52.9104 11.9225 52.9104 19.8908C52.9104 29.0471 41.2099 27.011 41.2099 37.07V38.0314H35.6724V37.07C35.6724 24.5256 47.2596 25.4828 47.2596 19.5507C47.2596 15.1971 44.7154 12.5984 39.9127 12.5984C34.7152 12.5984 32.2257 15.8772 32.1123 19.8908H26.5748Z" fill="black"></path><path d="M42.6164 48.6497H34.3248V41.2607H42.6164V48.6497ZM36.0041 46.9704H40.9371V42.94H36.0041V46.9704Z" fill="#EBE8E2"></path><path d="M41.7767 42.1006H35.1644V47.8102H41.7767V42.1006Z" fill="black"></path></g></svg>